<svg width="20" height="20" viewBox="0 0 20 20" fill="none" xmlns="http://www.w3.org/2000/svg">
<g clip-path="url(#clip0_255206_23348)">
<path d="M10 6.6665V9.99984L11.25 11.2498" stroke="#757575" stroke-width="1.5" stroke-linecap="round" stroke-linejoin="round"/>
<path d="M16.2879 13.7111C17.6515 14.4475 18.3333 14.8157 18.3333 15.4167C18.3333 16.0176 17.6515 16.3858 16.2879 17.1222L15.3593 17.6236C14.312 18.1892 13.7884 18.472 13.5366 18.2664C12.92 17.7629 13.8806 16.4634 14.117 16.0031C14.3565 15.5366 14.3521 15.2882 14.117 14.8302C13.8806 14.3699 12.92 13.0705 13.5366 12.567C13.7884 12.3614 14.312 12.6442 15.3593 13.2097L16.2879 13.7111Z" stroke="#757575" stroke-width="1.5"/>
<path d="M10.8551 18.2898C10.574 18.3185 10.2887 18.3332 9.99999 18.3332C5.39762 18.3332 1.66666 14.6022 1.66666 9.99984C1.66666 5.39746 5.39762 1.6665 9.99999 1.6665C14.6024 1.6665 18.3333 5.39746 18.3333 9.99984C18.3333 10.5706 18.2759 11.128 18.1666 11.6665" stroke="#757575" stroke-width="1.5" stroke-linecap="round"/>
</g>
<defs>
<clipPath id="clip0_255206_23348">
<rect width="20" height="20" fill="white"/>
</clipPath>
</defs>
</svg>
