<svg width="21" height="20" viewBox="0 0 21 20" fill="none" xmlns="http://www.w3.org/2000/svg">
<path d="M13.3755 14.1665C12.7092 14.6851 11.834 14.9998 10.8755 14.9998C9.91695 14.9998 9.04176 14.6851 8.37549 14.1665" stroke="#757575" stroke-width="1.5" stroke-linecap="round"/>
<path d="M2.83482 11.011C2.54063 9.0967 2.39354 8.13953 2.75546 7.29098C3.11738 6.44244 3.92035 5.86186 5.52627 4.70072L6.72615 3.83317C8.7239 2.38873 9.72278 1.6665 10.8753 1.6665C12.0279 1.6665 13.0267 2.38873 15.0245 3.83317L16.2244 4.70072C17.8303 5.86186 18.6333 6.44244 18.9952 7.29098C19.3571 8.13953 19.21 9.0967 18.9158 11.011L18.665 12.6435C18.2479 15.3573 18.0394 16.7142 17.0662 17.5237C16.0929 18.3332 14.67 18.3332 11.8243 18.3332H9.92631C7.0806 18.3332 5.65775 18.3332 4.68449 17.5237C3.71123 16.7142 3.50272 15.3573 3.08568 12.6435L2.83482 11.011Z" stroke="#757575" stroke-width="1.5" stroke-linejoin="round"/>
</svg>
