<svg width="21" height="20" viewBox="0 0 21 20" fill="none" xmlns="http://www.w3.org/2000/svg">
<path d="M13.7145 6.94196C14.5002 7.72052 13.2431 14.0522 11.9532 14.1637C10.8711 14.2573 10.5339 12.123 10.3059 11.4466C10.081 10.7789 9.83069 10.5386 9.16855 10.3195C7.48646 9.76306 6.64542 9.48483 6.4789 9.04427C6.03796 7.87764 12.711 5.9476 13.7145 6.94196Z" stroke="#757575" stroke-width="1.5"/>
<path d="M18.9582 9.99984C18.9582 14.6022 15.2272 18.3332 10.6248 18.3332C6.02246 18.3332 2.2915 14.6022 2.2915 9.99984C2.2915 5.39746 6.02246 1.6665 10.6248 1.6665C15.2272 1.6665 18.9582 5.39746 18.9582 9.99984Z" stroke="#757575" stroke-width="1.5"/>
</svg>
