<svg width="20" height="20" viewBox="0 0 20 20" fill="none" xmlns="http://www.w3.org/2000/svg">
<path d="M2.10843 12.3081C1.93122 13.4698 2.72349 14.2761 3.69354 14.678C7.4125 16.2186 12.5878 16.2186 16.3068 14.678C17.2768 14.2761 18.0691 13.4698 17.8919 12.3081C17.783 11.5942 17.2445 10.9997 16.8455 10.4192C16.3229 9.64947 16.271 8.80994 16.2709 7.91675C16.2709 4.46497 13.4634 1.66675 10.0002 1.66675C6.53694 1.66675 3.72943 4.46497 3.72943 7.91675C3.72936 8.80994 3.67743 9.64947 3.15484 10.4192C2.75586 10.9997 2.21734 11.5942 2.10843 12.3081Z" stroke="white" stroke-width="1.5" stroke-linecap="round" stroke-linejoin="round"/>
<path d="M6.66699 15.8335C7.04906 17.2712 8.3966 18.3335 10.0003 18.3335C11.604 18.3335 12.9516 17.2712 13.3337 15.8335" stroke="white" stroke-width="1.5" stroke-linecap="round" stroke-linejoin="round"/>
</svg>
