<svg width="21" height="20" viewBox="0 0 21 20" fill="none" xmlns="http://www.w3.org/2000/svg">
<path d="M6.2085 14.1668L6.2085 10.8335" stroke="#757575" stroke-width="1.5" stroke-linecap="round"/>
<path d="M10.375 14.1668L10.375 5.8335" stroke="#757575" stroke-width="1.5" stroke-linecap="round"/>
<path d="M14.542 14.167L14.542 9.16699" stroke="#757575" stroke-width="1.5" stroke-linecap="round"/>
<path d="M2.4585 10.0002C2.4585 6.26821 2.4585 4.40223 3.61787 3.24287C4.77723 2.0835 6.64321 2.0835 10.3752 2.0835C14.1071 2.0835 15.9731 2.0835 17.1325 3.24287C18.2918 4.40223 18.2918 6.26821 18.2918 10.0002C18.2918 13.7321 18.2918 15.5981 17.1325 16.7575C15.9731 17.9168 14.1071 17.9168 10.3752 17.9168C6.64321 17.9168 4.77723 17.9168 3.61787 16.7575C2.4585 15.5981 2.4585 13.7321 2.4585 10.0002Z" stroke="#757575" stroke-width="1.5" stroke-linejoin="round"/>
</svg>
