<svg width="21" height="20" viewBox="0 0 21 20" fill="none" xmlns="http://www.w3.org/2000/svg">
<path d="M17.8897 5.95132L17.4784 5.23749C17.1673 4.69763 17.0118 4.4277 16.7471 4.32006C16.4825 4.21243 16.1832 4.29736 15.5846 4.46723L14.5677 4.75365C14.1855 4.84178 13.7846 4.79178 13.4356 4.61249L13.1549 4.45051C12.8557 4.25886 12.6255 3.97627 12.4981 3.64412L12.2198 2.81296C12.0368 2.26294 11.9453 1.98794 11.7275 1.83064C11.5097 1.67334 11.2204 1.67334 10.6418 1.67334H9.71278C9.13415 1.67334 8.84483 1.67334 8.62702 1.83064C8.4092 1.98794 8.31771 2.26294 8.13474 2.81296L7.85644 3.64412C7.72904 3.97627 7.49887 4.25886 7.19964 4.45051L6.9189 4.61249C6.56994 4.79178 6.16899 4.84178 5.78682 4.75365L4.76995 4.46723C4.17134 4.29736 3.87203 4.21243 3.60739 4.32006C3.34274 4.4277 3.1872 4.69763 2.87612 5.23749L2.4648 5.95132C2.17321 6.45737 2.02742 6.71039 2.05571 6.97974C2.08401 7.24909 2.27919 7.46614 2.66955 7.90026L3.52875 8.86085C3.73875 9.1267 3.88784 9.59001 3.88784 10.0065C3.88784 10.4233 3.73879 10.8865 3.52877 11.1524L2.66955 12.113C2.27919 12.5471 2.08401 12.7642 2.05571 13.0335C2.02742 13.3029 2.17321 13.5559 2.4648 14.062L2.87611 14.7758C3.18718 15.3156 3.34274 15.5856 3.60739 15.6932C3.87204 15.8008 4.17135 15.7159 4.76997 15.546L5.78678 15.2596C6.16902 15.1714 6.57005 15.2215 6.91905 15.4008L7.19974 15.5628C7.49892 15.7545 7.72903 16.037 7.85641 16.3691L8.13474 17.2004C8.31771 17.7504 8.4092 18.0254 8.62702 18.1827C8.84483 18.34 9.13415 18.34 9.71278 18.34H10.6418C11.2204 18.34 11.5097 18.34 11.7275 18.1827C11.9453 18.0254 12.0368 17.7504 12.2198 17.2004L12.4981 16.3691C12.6255 16.037 12.8556 15.7545 13.1548 15.5628L13.4355 15.4008C13.7845 15.2215 14.1855 15.1714 14.5678 15.2596L15.5846 15.546C16.1832 15.7159 16.4825 15.8008 16.7471 15.6932C17.0118 15.5856 17.1674 15.3156 17.4784 14.7758L17.8897 14.062C18.1813 13.5559 18.3271 13.3029 18.2988 13.0335C18.2705 12.7642 18.0753 12.5471 17.685 12.113L16.8258 11.1524C16.6157 10.8865 16.4667 10.4233 16.4667 10.0065C16.4667 9.59001 16.6158 9.1267 16.8258 8.86085L17.685 7.90026C18.0753 7.46614 18.2705 7.24909 18.2988 6.97974C18.3271 6.71039 18.1813 6.45737 17.8897 5.95132Z" stroke="#757575" stroke-width="1.5" stroke-linecap="round"/>
<path d="M13.0579 10.0002C13.0579 11.611 11.7521 12.9168 10.1413 12.9168C8.53045 12.9168 7.22461 11.611 7.22461 10.0002C7.22461 8.38933 8.53045 7.0835 10.1413 7.0835C11.7521 7.0835 13.0579 8.38933 13.0579 10.0002Z" stroke="#757575" stroke-width="1.5"/>
</svg>
